<svg width="222" height="384" xmlns="http://www.w3.org/2000/svg" xmlns:xlink="http://www.w3.org/1999/xlink">
  <defs>
    <filter x="-15.8%" y="-63.2%" width="131.5%" height="226.4%" filterUnits="objectBoundingBox" id="a">
      <feGaussianBlur stdDeviation="8.925" in="SourceGraphic"/>
    </filter>
    <filter x="-83.7%" y="-223.1%" width="267.3%" height="546.3%" filterUnits="objectBoundingBox" id="b">
      <feGaussianBlur stdDeviation="8.925" in="SourceGraphic"/>
    </filter>
    <linearGradient x1="27.208%" y1="0%" x2="56.352%" y2="100%" id="c">
      <stop stop-color="#F9F8F8" offset="0%"/>
      <stop stop-color="#E9E9E9" offset="100%"/>
    </linearGradient>
    <linearGradient x1="78.128%" y1="68.203%" x2="97.417%" y2="77.382%" id="d">
      <stop stop-color="#F0F0F0" offset="0%"/>
      <stop stop-color="#D9D8D8" offset="100%"/>
    </linearGradient>
    <linearGradient x1="8.738%" y1="49.305%" x2="50%" y2="50.943%" id="f">
      <stop stop-color="#FDFDFD" offset="0%"/>
      <stop stop-color="#FBFBFB" offset="100%"/>
    </linearGradient>
    <ellipse id="e" cx="90.777" cy="12.464" rx="90.777" ry="12.464"/>
    <linearGradient x1="50%" y1="0%" x2="50%" y2="100%" id="h">
      <stop stop-color="#C8C8C8" stop-opacity=".2" offset="0%"/>
      <stop stop-color="#979797" stop-opacity=".3" offset="100%"/>
    </linearGradient>
    <linearGradient x1="50%" y1="0%" x2="50%" y2="100%" id="i">
      <stop stop-color="#C8C8C8" stop-opacity=".2" offset="0%"/>
      <stop stop-color="#979797" stop-opacity=".3" offset="100%"/>
    </linearGradient>
    <linearGradient x1="50%" y1="0%" x2="50%" y2="100%" id="j">
      <stop stop-color="#C8C8C8" stop-opacity=".2" offset="0%"/>
      <stop stop-color="#979797" stop-opacity=".3" offset="100%"/>
    </linearGradient>
  </defs>
  <g fill="none" fill-rule="evenodd">
    <path d="M93.052 359.05c2.125 0 90.962-6.937 90.962-20.085 0-13.767-43.622-22.27-90.838-22.27-47.216 0-79.059 2.57-79.059 16.337 0 13.768 31.719 26.018 78.935 26.018z" fill="#60637B" opacity=".2" filter="url(#a)" transform="scale(-1 1) rotate(-2 48.855 6497.543)"/>
    <path fill="#60637B" opacity=".2" filter="url(#b)" d="M161 313h32v12h-32z" transform="matrix(-1 0 0 1 215 2)"/>
    <path d="M158.095 297h24.195c5.915 0 10.71-4.795 10.71-10.71v-47.58c0-5.915-4.795-10.71-10.71-10.71h-24.27c.444-9.464 8.257-17 17.83-17h16.3c9.858 0 17.85 7.992 17.85 17.85v66.3c0 9.858-7.992 17.85-17.85 17.85h-16.3c-9.234 0-16.83-7.011-17.755-16zm-.095-1.85v-66.3 66.3z" fill="url(#c)" transform="matrix(-1 0 0 1 215 2)"/>
    <path d="M14.203 336.978l-.797.018L.946 187.43h183.335L171.03 332.36c.292.468.442.943.442 1.424C171.472 341.159 136.499 352 93 352c-41.59 0-75.868-7.884-78.797-15.022z" fill="url(#d)" transform="matrix(-1 0 0 1 215 2)"/>
    <path d="M68.12 319.043c3.665.395 6.937-2.114 7.307-5.606.37-3.493-2.312-6.528-5.99-6.776-3.678-.246-6.95 2.27-7.307 5.616-.358 3.344 2.324 6.373 5.99 6.766zm21.717-.482c2.05-2.444 2.132-6.039.01-8.528-2.424-2.802-6.802-3.094-9.771-.73-2.966 2.32-3.398 6.404-.973 9.2.3.35.63.664.985.941l-8.668 6.453 3.505 4.142 15-11.373-.088-.105z" fill="#000" opacity=".1"/>
    <g transform="matrix(-1 0 0 1 214.053 177.856)">
      <mask id="g" fill="#fff">
        <use xlink:href="#e"/>
      </mask>
      <ellipse stroke="url(#f)" stroke-width="2.678" cx="90.777" cy="12.464" rx="92.116" ry="13.803"/>
      <path d="M89.887 44.514c50.627 0 91.668-6.776 91.668-15.135s-41.041-15.135-91.668-15.135C39.261 14.244-1.78 21.02-1.78 29.38s41.04 15.135 91.667 15.135z" fill="#572C2C" mask="url(#g)"/>
      <ellipse fill="#775841" opacity=".8" mask="url(#g)" cx="92.557" cy="32.05" rx="67.638" ry="12.464"/>
    </g>
    <path d="M46.335 187.16c-7.12-10.09-8.9-20.18-5.34-30.27 5.34-15.134 27.59-5.34 27.59-35.61s-22.03-30.704-27.59-14.244c-3.705 10.973.745 15.72 13.35 14.244" stroke="url(#h)" stroke-width="2.678" opacity=".4" transform="matrix(-1 0 0 1 215 2)"/>
    <path d="M121.093 202.16c-7.12-14.385-8.9-28.77-5.34-43.156 5.34-21.578 18.69-41.887 18.69-85.043" stroke="url(#i)" stroke-width="3.57" opacity=".4" transform="translate(-33.416 2)"/>
    <path d="M84.44 199.624c-7.12-19.58-8.9-39.16-5.34-58.74 5.34-29.37 39.188-42.013 39.188-100.754 0-39.16-17.465-49.66-52.396-31.5-8.982 29-.998 43.5 23.953 43.5" stroke="url(#j)" stroke-width="3.57" opacity=".4" transform="translate(34.386 2)"/>
  </g>
</svg>